<svg id="Calque_1" data-name="Calque 1" xmlns="http://www.w3.org/2000/svg" viewBox="0 0 212 98"><defs><style>.cls-1{fill:#1d1d1b;}.cls-2{fill:#03fbb3;}</style></defs><polygon id="I_Barre" data-name="I Barre" class="cls-1" points="202.83 12.98 209.33 12.98 209.33 30.31 209.33 41.89 202.83 41.89 202.83 12.98"/><polygon id="I_Point" data-name="I Point" class="cls-1" points="202.83 2 209.33 2 209.33 5.94 209.33 8.57 202.83 8.57 202.83 2"/><polygon id="N" class="cls-1" points="160.49 41.68 153.99 41.68 153.99 12.98 178.13 12.98 178.13 41.68 171.62 41.68 171.62 19.85 160.53 19.85 160.49 41.68"/><path id="O_2" data-name="O 2" class="cls-1" d="M129.29,27.62a14.13,14.13,0,1,1-14.13-14.13,14.13,14.13,0,0,1,14.13,14.13m-5.78.06a8.41,8.41,0,1,0-8.41,8.41,8.41,8.41,0,0,0,8.41-8.41"/><polygon id="K" class="cls-1" points="61.39 41.89 61.39 29.82 74.42 42.74 79.06 38.1 68.87 27.91 76.17 20.61 71.65 15.87 61.39 26.03 61.39 2 54.88 2 54.88 41.89 61.39 41.89"/><path id="O_1" data-name="O 1" class="cls-1" d="M29.6,27.62A14.13,14.13,0,1,1,15.47,13.49,14.13,14.13,0,0,1,29.6,27.62m-5.78.06a8.41,8.41,0,1,0-8.41,8.41,8.41,8.41,0,0,0,8.41-8.41"/><path class="cls-2" d="M11.73,69.86a7.34,7.34,0,0,1-2.36.39,7.52,7.52,0,0,1-3.55-.81,5.85,5.85,0,0,1-2.4-2.3,6.74,6.74,0,0,1-.86-3.43,6.46,6.46,0,0,1,.9-3.41A6.21,6.21,0,0,1,5.86,58,6.71,6.71,0,0,1,9.1,57.2a7.08,7.08,0,0,1,4.71,1.56L12.4,60.59A6.09,6.09,0,0,0,11,59.82a4.44,4.44,0,0,0-1.68-.31,3.81,3.81,0,0,0-2,.55,4,4,0,0,0-1.44,1.52,4.37,4.37,0,0,0-.53,2.13,4.18,4.18,0,0,0,4.26,4.23,4.18,4.18,0,0,0,2.67-.9l1.44,1.74A6.24,6.24,0,0,1,11.73,69.86Z"/><path class="cls-2" d="M21.39,58.67a6.9,6.9,0,0,1,1.87-1.2A5.08,5.08,0,0,1,25,57l-.12,2.79a4.55,4.55,0,0,0-2.44.54A4.33,4.33,0,0,0,20.73,62a4.48,4.48,0,0,0-.62,2.27V70H17.32V57.53h2.49L20,60.47A5.53,5.53,0,0,1,21.39,58.67Z"/><path class="cls-2" d="M36.91,66.77l1.29,2.07a8.63,8.63,0,0,1-2.14,1,7.5,7.5,0,0,1-5.85-.48A6,6,0,0,1,27.82,67,6.82,6.82,0,0,1,27,63.65a6.37,6.37,0,0,1,.92-3.35,6.63,6.63,0,0,1,2.5-2.4A7,7,0,0,1,33.88,57,6,6,0,0,1,38,58.44a7.33,7.33,0,0,1,2.23,4l-9.84,3.45a3.91,3.91,0,0,0,1.46,1.45,4.1,4.1,0,0,0,2.08.53A5.06,5.06,0,0,0,36.91,66.77Zm-6.06-6.33a4.33,4.33,0,0,0-1.11,3.06,6,6,0,0,0,0,.69L37,61.52a4.12,4.12,0,0,0-1.27-1.65,3.3,3.3,0,0,0-2.06-.63A3.67,3.67,0,0,0,30.85,60.44Zm3.81-5.28h-1.8l2.49-4h3.12Z"/><path class="cls-2" d="M52.51,66.77l1.29,2.07a8.63,8.63,0,0,1-2.14,1,7.5,7.5,0,0,1-5.85-.48A6,6,0,0,1,43.42,67a6.82,6.82,0,0,1-.84-3.39,6.37,6.37,0,0,1,.92-3.35A6.63,6.63,0,0,1,46,57.9,7,7,0,0,1,49.48,57a6,6,0,0,1,4.07,1.42,7.33,7.33,0,0,1,2.23,4l-9.84,3.45a3.91,3.91,0,0,0,1.46,1.45,4.1,4.1,0,0,0,2.08.53A5.06,5.06,0,0,0,52.51,66.77Zm-6.06-6.33a4.33,4.33,0,0,0-1.11,3.06,6,6,0,0,0,0,.69l7.23-2.67a4.12,4.12,0,0,0-1.27-1.65,3.3,3.3,0,0,0-2.06-.63A3.67,3.67,0,0,0,46.45,60.44Z"/><path class="cls-2" d="M63.33,58.67a6.9,6.9,0,0,1,1.87-1.2A5.08,5.08,0,0,1,66.94,57l-.12,2.79a4.55,4.55,0,0,0-2.44.54A4.33,4.33,0,0,0,62.67,62a4.48,4.48,0,0,0-.62,2.27V70H59.26V57.53h2.49L62,60.47A5.53,5.53,0,0,1,63.33,58.67Z"/><path class="cls-2" d="M88.87,66.77l1.29,2.07a8.63,8.63,0,0,1-2.14,1,7.5,7.5,0,0,1-5.85-.48A6,6,0,0,1,79.78,67a6.82,6.82,0,0,1-.84-3.39,6.37,6.37,0,0,1,.92-3.35,6.63,6.63,0,0,1,2.5-2.4A7,7,0,0,1,85.84,57a6,6,0,0,1,4.07,1.42,7.33,7.33,0,0,1,2.23,4L82.3,65.87a3.91,3.91,0,0,0,1.46,1.45,4.1,4.1,0,0,0,2.08.53A5.06,5.06,0,0,0,88.87,66.77Zm-6.06-6.33A4.33,4.33,0,0,0,81.7,63.5a6,6,0,0,0,0,.69L89,61.52a4.12,4.12,0,0,0-1.27-1.65,3.3,3.3,0,0,0-2.06-.63A3.67,3.67,0,0,0,82.81,60.44Z"/><path class="cls-2" d="M99.64,52.07v5.49H103v2.22H99.64V70H96.82V59.78H94.54V57.56h2.28V52.07Z"/><path class="cls-2" d="M18.63,96.12s-.61-2.2,0-2.2.82.29,1.36.29a3,3,0,0,0,1.62-.39,1.31,1.31,0,0,0,.63-1.2,1.38,1.38,0,0,0-.39-1A2.42,2.42,0,0,0,21,91c-.33-.12-.88-.3-1.66-.54q-3.18-1-3.18-3.63a3.57,3.57,0,0,1,1.15-2.67,4.48,4.48,0,0,1,3.23-1.11,7.6,7.6,0,0,1,2.34.33,5.7,5.7,0,0,1,1.89,1l-1.11,1.71a3.43,3.43,0,0,0-1.22-.81A4.18,4.18,0,0,0,21,85a2.51,2.51,0,0,0-1.44.4,1.27,1.27,0,0,0-.6,1.1,1.24,1.24,0,0,0,.39.94,2.49,2.49,0,0,0,.81.54c.28.11.83.3,1.65.56a6.31,6.31,0,0,1,2.38,1.32,2.88,2.88,0,0,1,.86,2.19,3.88,3.88,0,0,1-1.26,3,5,5,0,0,1-3.57,1.07Z"/><path class="cls-2" d="M37.81,92.77l1.29,2.07a8.7,8.7,0,0,1-2.15,1,7.2,7.2,0,0,1-2.23.38,7.37,7.37,0,0,1-3.62-.86A6,6,0,0,1,28.72,93a6.82,6.82,0,0,1-.84-3.39,6.36,6.36,0,0,1,.91-3.35,6.66,6.66,0,0,1,2.51-2.4A7,7,0,0,1,34.78,83a6,6,0,0,1,4.06,1.42,7.34,7.34,0,0,1,2.24,4l-9.84,3.45a3.88,3.88,0,0,0,1.45,1.45,4.14,4.14,0,0,0,2.09.53A5.06,5.06,0,0,0,37.81,92.77Zm-6.06-6.33a4.33,4.33,0,0,0-1.11,3.06,6,6,0,0,0,0,.69l7.23-2.67a4.14,4.14,0,0,0-1.28-1.65,3.27,3.27,0,0,0-2-.63A3.67,3.67,0,0,0,31.75,86.44Z"/><path class="cls-2" d="M58.06,78.07v5.49h3.39v2.22H58.06V96H55.24V85.78H53V83.56h2.28V78.07Z"/><path class="cls-2" d="M68.9,84.67a7,7,0,0,1,1.88-1.2A5.08,5.08,0,0,1,72.52,83l-.12,2.79a4.58,4.58,0,0,0-2.45.54A4.33,4.33,0,0,0,68.24,88a4.47,4.47,0,0,0-.61,2.27V96H64.84V83.53h2.49l.21,2.94A5.5,5.5,0,0,1,68.9,84.67Z"/><path class="cls-2" d="M88.57,83.53V96H85.78v-2a6.43,6.43,0,0,1-1.92,1.6,5.55,5.55,0,0,1-2.85.74,6.67,6.67,0,0,1-3.2-.77,5.55,5.55,0,0,1-2.25-2.23,7.9,7.9,0,0,1,0-7.07,6,6,0,0,1,2.31-2.34A6.44,6.44,0,0,1,81.13,83a5.33,5.33,0,0,1,2.76.69,5.62,5.62,0,0,1,1.89,1.8l.21-2Zm-4.19,9.55a3.8,3.8,0,0,0,1.4-2.32V88.3a3.84,3.84,0,0,0-1.5-2.15,4.33,4.33,0,0,0-2.61-.82,4.09,4.09,0,0,0-2.06.54,4,4,0,0,0-1.5,1.51,4.39,4.39,0,0,0-.55,2.21,4.35,4.35,0,0,0,2.1,3.76,4,4,0,0,0,2.1.59A4.13,4.13,0,0,0,84.38,93.08Z"/><path class="cls-2" d="M104,84.08a3.56,3.56,0,0,1,1.17,2.69V96h-2.82V87.73a2.52,2.52,0,0,0-.63-1.65,2.34,2.34,0,0,0-1.71-.63,3.38,3.38,0,0,0-2.73,1.32,5.13,5.13,0,0,0-1.08,3.36V96H93.43V83.53H96l.18,2.4a4.88,4.88,0,0,1,2-2.12,5.93,5.93,0,0,1,3-.76A4.12,4.12,0,0,1,104,84.08Z"/><path class="cls-2" d="M110.9,95.74a4.85,4.85,0,0,1-2-1.41l1.2-1.62a5.94,5.94,0,0,0,1.57,1.11,3.82,3.82,0,0,0,1.64.39,3,3,0,0,0,1.62-.39,1.31,1.31,0,0,0,.63-1.2,1.38,1.38,0,0,0-.39-1,2.42,2.42,0,0,0-.89-.57c-.33-.12-.88-.3-1.66-.54q-3.18-1-3.18-3.63a3.57,3.57,0,0,1,1.15-2.67,4.48,4.48,0,0,1,3.23-1.11,7.6,7.6,0,0,1,2.34.33,5.7,5.7,0,0,1,1.89,1l-1.11,1.71a3.43,3.43,0,0,0-1.22-.81,4.18,4.18,0,0,0-1.39-.33,2.51,2.51,0,0,0-1.44.4,1.27,1.27,0,0,0-.6,1.1,1.24,1.24,0,0,0,.39.94,2.49,2.49,0,0,0,.81.54c.28.11.83.3,1.65.56a6.31,6.31,0,0,1,2.38,1.32,2.88,2.88,0,0,1,.86,2.19,3.88,3.88,0,0,1-1.26,3,5.05,5.05,0,0,1-3.57,1.17A7.26,7.26,0,0,1,110.9,95.74Z"/><path class="cls-2" d="M123.28,86h-2.13V83.5h2.13V78.28a6.2,6.2,0,0,1,1.23-4.14,4.47,4.47,0,0,1,3.6-1.44,5.6,5.6,0,0,1,1.41.19,4.65,4.65,0,0,1,1.32.56l-1.2,2a1.64,1.64,0,0,0-1.26-.48,2,2,0,0,0-1.73.78,4.26,4.26,0,0,0-.58,2.52V83.5h4V86h-4V96h-2.79Z"/><path class="cls-2" d="M132.77,86.27a6.33,6.33,0,0,1,2.46-2.38,7.25,7.25,0,0,1,3.56-.87,7,7,0,0,1,3.52.87,6.21,6.21,0,0,1,2.4,2.37,7,7,0,0,1,0,6.73,6.15,6.15,0,0,1-2.41,2.39,7.2,7.2,0,0,1-3.57.87,7.39,7.39,0,0,1-3.51-.83,6.08,6.08,0,0,1-2.45-2.32,6.72,6.72,0,0,1-.88-3.48A6.52,6.52,0,0,1,132.77,86.27Zm2.46,5.54a4,4,0,0,0,1.44,1.56,4,4,0,0,0,4.91-.66,4.33,4.33,0,0,0,1.14-3.06,4.4,4.4,0,0,0-1.14-3.08,3.73,3.73,0,0,0-2.88-1.24,3.66,3.66,0,0,0-2,.58,4.2,4.2,0,0,0-1.43,1.58,4.75,4.75,0,0,0,0,4.32Z"/><path class="cls-2" d="M153.38,84.67a7,7,0,0,1,1.88-1.2A5.08,5.08,0,0,1,157,83l-.12,2.79a4.58,4.58,0,0,0-2.45.54A4.33,4.33,0,0,0,152.72,88a4.47,4.47,0,0,0-.61,2.27V96h-2.79V83.53h2.49l.21,2.94A5.5,5.5,0,0,1,153.38,84.67Z"/><path class="cls-2" d="M179.39,84a3.77,3.77,0,0,1,1.13,2.7V96h-2.79V87.76q-.09-2.19-2-2.31a3.14,3.14,0,0,0-1.94.64,4.34,4.34,0,0,0-1.33,1.7A5.7,5.7,0,0,0,172,90V96h-2.82V87.76q-.09-2.19-2-2.31a3.1,3.1,0,0,0-1.91.64,4.3,4.3,0,0,0-1.33,1.71,5.47,5.47,0,0,0-.48,2.27V96H160.6V83.53h2.52l.21,2.34a5.3,5.3,0,0,1,2-2.1,5.4,5.4,0,0,1,2.84-.75,4.32,4.32,0,0,1,2.52.7A3.2,3.2,0,0,1,172,85.66a5.83,5.83,0,0,1,2-1.94,5,5,0,0,1,2.58-.7A4,4,0,0,1,179.39,84Z"/><path class="cls-2" d="M194.2,92.77l1.29,2.07a8.7,8.7,0,0,1-2.15,1,7.2,7.2,0,0,1-2.23.38,7.37,7.37,0,0,1-3.62-.86A6,6,0,0,1,185.11,93a6.82,6.82,0,0,1-.84-3.39,6.36,6.36,0,0,1,.91-3.35,6.66,6.66,0,0,1,2.51-2.4,7,7,0,0,1,3.48-.88,6,6,0,0,1,4.06,1.42,7.34,7.34,0,0,1,2.24,4l-9.84,3.45a3.88,3.88,0,0,0,1.45,1.45,4.14,4.14,0,0,0,2.09.53A5.06,5.06,0,0,0,194.2,92.77Zm-6.06-6.33A4.33,4.33,0,0,0,187,89.5a6,6,0,0,0,0,.69l7.23-2.67A4.14,4.14,0,0,0,193,85.87a3.27,3.27,0,0,0-2-.63A3.67,3.67,0,0,0,188.14,86.44Z"/><path class="cls-2" d="M205,84.67a7,7,0,0,1,1.88-1.2,5.08,5.08,0,0,1,1.74-.45l-.12,2.79a4.58,4.58,0,0,0-2.45.54A4.33,4.33,0,0,0,204.35,88a4.47,4.47,0,0,0-.61,2.27V96H201V83.53h2.49l.21,2.94A5.5,5.5,0,0,1,205,84.67Z"/><rect class="cls-2" x="96.8" y="67.63" width="113" height="2.37"/><rect class="cls-2" x="2.55" y="93.92" width="16.08" height="2.2"/></svg>